<svg id="Component_42_5" data-name="Component 42 – 5" xmlns="http://www.w3.org/2000/svg" width="1921.085" height="724.582" viewBox="0 0 1921.085 724.582">
  <defs>
    <style>
      .cls-1 {
        fill: #239dea;
      }
    </style>
  </defs>
  <path id="Path_45" data-name="Path 45" class="cls-1" d="M8004.029,3043.131s.815-45.916,0-84.582c24.148-25.334,26.815-28.668,46.815-44.807,45.333-36.527,93.069-45.138,178.191-45.336,54.146-.244,96.25,17.852,144.721,45.336,228.628,129.638,383.016,233.389,662.075,220.844s416.312-265.7,692.01-294.977c99.371-10.551,172.383,8.382,196.988,34.272-.652,30.668,0,57.207,0,114.631,0,34.447.078,56.395,0,81.369-.086,27.352,0,57.684,0,97.662q.007,53.254,0,212.412c0,37.475,0,76.718,0,109.926.635,33.646.015,22.9,0,71.334-203.985,0-1920.8-2.229-1920.8-2.229Z" transform="translate(-8004.029 -2836.633)"/>
</svg>
